<svg viewBox="0 0 125 30" fill="none" xmlns="http://www.w3.org/2000/svg">
<path d="M11.767 20V19.233L16.4716 12.2102H11.7159V11.2727H17.733V12.0398L13.0284 19.0625H17.7841V20H11.767ZM19.9148 20H18.8068L22.0114 11.2727H23.1023L26.3068 20H25.1989L22.5909 12.6534H22.5227L19.9148 20ZM20.3239 16.5909H24.7898V17.5284H20.3239V16.5909ZM27.6662 20V11.2727H30.6151C31.2969 11.2727 31.8565 11.3892 32.294 11.6222C32.7315 11.8523 33.0554 12.169 33.2656 12.5724C33.4759 12.9759 33.581 13.4347 33.581 13.9489C33.581 14.4631 33.4759 14.919 33.2656 15.3168C33.0554 15.7145 32.733 16.027 32.2983 16.2543C31.8636 16.4787 31.3082 16.5909 30.6321 16.5909H28.2457V15.6364H30.598C31.0639 15.6364 31.4389 15.5682 31.723 15.4318C32.0099 15.2955 32.2173 15.1023 32.3452 14.8523C32.4759 14.5994 32.5412 14.2983 32.5412 13.9489C32.5412 13.5994 32.4759 13.294 32.3452 13.0327C32.2145 12.7713 32.0057 12.5696 31.7188 12.4276C31.4318 12.2827 31.0526 12.2102 30.581 12.2102H28.723V20H27.6662ZM31.7741 16.0795L33.9219 20H32.6946L30.581 16.0795H31.7741ZM35.342 20V11.2727H38.2908C38.9755 11.2727 39.5352 11.3963 39.9698 11.6435C40.4073 11.8878 40.7312 12.2188 40.9414 12.6364C41.1516 13.054 41.2567 13.5199 41.2567 14.0341C41.2567 14.5483 41.1516 15.0156 40.9414 15.4361C40.734 15.8565 40.413 16.1918 39.9783 16.4418C39.5437 16.6889 38.9869 16.8125 38.3079 16.8125H36.1942V15.875H38.2738C38.7425 15.875 39.119 15.794 39.4031 15.6321C39.6871 15.4702 39.8931 15.2514 40.021 14.9759C40.1516 14.6974 40.217 14.3835 40.217 14.0341C40.217 13.6847 40.1516 13.3722 40.021 13.0966C39.8931 12.821 39.6857 12.6051 39.3988 12.4489C39.1119 12.2898 38.7312 12.2102 38.2567 12.2102H36.3988V20H35.342ZM42.9592 20V11.2727H44.016V19.0625H48.0728V20H42.9592ZM50.6179 20H49.5099L52.7145 11.2727H53.8054L57.0099 20H55.902L53.294 12.6534H53.2259L50.6179 20ZM51.027 16.5909H55.4929V17.5284H51.027V16.5909ZM56.8725 12.2102V11.2727H63.418V12.2102H60.6737V20H59.6168V12.2102H56.8725ZM64.3874 20H63.2795L66.484 11.2727H67.5749L70.7795 20H69.6715L67.0636 12.6534H66.9954L64.3874 20ZM64.7965 16.5909H69.2624V17.5284H64.7965V16.5909ZM72.7354 20.0682C72.5252 20.0682 72.3448 19.9929 72.1942 19.8423C72.0437 19.6918 71.9684 19.5114 71.9684 19.3011C71.9684 19.0909 72.0437 18.9105 72.1942 18.7599C72.3448 18.6094 72.5252 18.5341 72.7354 18.5341C72.9457 18.5341 73.1261 18.6094 73.2766 18.7599C73.4272 18.9105 73.5025 19.0909 73.5025 19.3011C73.5025 19.4403 73.467 19.5682 73.396 19.6847C73.3278 19.8011 73.2354 19.8949 73.119 19.9659C73.0053 20.0341 72.8775 20.0682 72.7354 20.0682ZM80.2163 13.4545C80.1651 13.0227 79.9577 12.6875 79.5941 12.4489C79.2305 12.2102 78.7844 12.0909 78.256 12.0909C77.8697 12.0909 77.5316 12.1534 77.2418 12.2784C76.9549 12.4034 76.7305 12.5753 76.5685 12.794C76.4094 13.0128 76.3299 13.2614 76.3299 13.5398C76.3299 13.7727 76.3853 13.973 76.4961 14.1406C76.6097 14.3054 76.7546 14.4432 76.9308 14.554C77.1069 14.6619 77.2915 14.7514 77.4847 14.8224C77.6779 14.8906 77.8555 14.946 78.0174 14.9886L78.9038 15.2273C79.131 15.2869 79.3839 15.3693 79.6623 15.4744C79.9435 15.5795 80.212 15.723 80.4677 15.9048C80.7262 16.0838 80.9393 16.3139 81.1069 16.5952C81.2745 16.8764 81.3583 17.2216 81.3583 17.6307C81.3583 18.1023 81.2347 18.5284 80.9876 18.9091C80.7433 19.2898 80.3853 19.5923 79.9137 19.8168C79.445 20.0412 78.8754 20.1534 78.2049 20.1534C77.5799 20.1534 77.0387 20.0526 76.5813 19.8509C76.1268 19.6491 75.7688 19.3679 75.5075 19.0071C75.2489 18.6463 75.1026 18.2273 75.0685 17.75H76.1594C76.1879 18.0795 76.2987 18.3523 76.4918 18.5682C76.6879 18.7812 76.935 18.9403 77.2333 19.0455C77.5344 19.1477 77.8583 19.1989 78.2049 19.1989C78.6083 19.1989 78.9705 19.1335 79.2915 19.0028C79.6126 18.8693 79.8668 18.6847 80.0543 18.4489C80.2418 18.2102 80.3356 17.9318 80.3356 17.6136C80.3356 17.3239 80.2546 17.0881 80.0927 16.9062C79.9308 16.7244 79.7177 16.5767 79.4535 16.4631C79.1893 16.3494 78.9038 16.25 78.5969 16.1648L77.5231 15.858C76.8413 15.6619 76.3015 15.3821 75.9038 15.0185C75.506 14.6548 75.3072 14.179 75.3072 13.5909C75.3072 13.1023 75.4393 12.6761 75.7035 12.3125C75.9705 11.946 76.3285 11.6619 76.7773 11.4602C77.229 11.2557 77.7333 11.1534 78.2901 11.1534C78.8526 11.1534 79.3526 11.2543 79.7901 11.456C80.2276 11.6548 80.5742 11.9276 80.8299 12.2741C81.0884 12.6207 81.2248 13.0142 81.239 13.4545H80.2163ZM82.6186 12.2102V11.2727H89.1641V12.2102H86.4197V20H85.3629V12.2102H82.6186ZM97.7955 15.6364C97.7955 16.5568 97.6293 17.3523 97.2969 18.0227C96.9645 18.6932 96.5085 19.2102 95.929 19.5739C95.3494 19.9375 94.6875 20.1193 93.9432 20.1193C93.1989 20.1193 92.5369 19.9375 91.9574 19.5739C91.3778 19.2102 90.9219 18.6932 90.5895 18.0227C90.2571 17.3523 90.0909 16.5568 90.0909 15.6364C90.0909 14.7159 90.2571 13.9205 90.5895 13.25C90.9219 12.5795 91.3778 12.0625 91.9574 11.6989C92.5369 11.3352 93.1989 11.1534 93.9432 11.1534C94.6875 11.1534 95.3494 11.3352 95.929 11.6989C96.5085 12.0625 96.9645 12.5795 97.2969 13.25C97.6293 13.9205 97.7955 14.7159 97.7955 15.6364ZM96.7727 15.6364C96.7727 14.8807 96.6463 14.2429 96.3935 13.723C96.1435 13.2031 95.804 12.8097 95.375 12.5426C94.9489 12.2756 94.4716 12.142 93.9432 12.142C93.4148 12.142 92.9361 12.2756 92.5071 12.5426C92.081 12.8097 91.7415 13.2031 91.4886 13.723C91.2386 14.2429 91.1136 14.8807 91.1136 15.6364C91.1136 16.392 91.2386 17.0298 91.4886 17.5497C91.7415 18.0696 92.081 18.4631 92.5071 18.7301C92.9361 18.9972 93.4148 19.1307 93.9432 19.1307C94.4716 19.1307 94.9489 18.9972 95.375 18.7301C95.804 18.4631 96.1435 18.0696 96.3935 17.5497C96.6463 17.0298 96.7727 16.392 96.7727 15.6364ZM99.5724 20V11.2727H102.521C103.203 11.2727 103.763 11.3892 104.2 11.6222C104.638 11.8523 104.962 12.169 105.172 12.5724C105.382 12.9759 105.487 13.4347 105.487 13.9489C105.487 14.4631 105.382 14.919 105.172 15.3168C104.962 15.7145 104.639 16.027 104.205 16.2543C103.77 16.4787 103.214 16.5909 102.538 16.5909H100.152V15.6364H102.504C102.97 15.6364 103.345 15.5682 103.629 15.4318C103.916 15.2955 104.124 15.1023 104.251 14.8523C104.382 14.5994 104.447 14.2983 104.447 13.9489C104.447 13.5994 104.382 13.294 104.251 13.0327C104.121 12.7713 103.912 12.5696 103.625 12.4276C103.338 12.2827 102.959 12.2102 102.487 12.2102H100.629V20H99.5724ZM103.68 16.0795L105.828 20H104.601L102.487 16.0795H103.68ZM107.248 20V11.2727H112.515V12.2102H108.305V15.1591H112.243V16.0966H108.305V19.0625H112.583V20H107.248Z" fill="white"/>
<rect x="0.5" y="-0.5" width="124" height="29" rx="14.5" transform="matrix(1 0 0 -1 0 29)" stroke="url(#paint0_linear_28_4)"/>
<defs>
<linearGradient id="paint0_linear_28_4" x1="0" y1="15" x2="125" y2="15" gradientUnits="userSpaceOnUse">
<stop stop-color="#ffe863"/>
<stop offset="1" stop-color="#f5bd1f"/>
</linearGradient>
</defs>
</svg>
