<svg width="24" height="24" viewBox="0 0 24 24" fill="none" xmlns="http://www.w3.org/2000/svg">
<path d="M14.751 3.08108C14.7124 3.05014 14.6681 3.02714 14.6206 3.0134C14.573 2.99967 14.5233 2.99547 14.4741 3.00104C14.425 3.00662 14.3774 3.02186 14.3342 3.0459C14.291 3.06993 14.2529 3.10228 14.2222 3.14108L10.77 7.50008H8.85675L13.047 2.20958C13.2004 2.0159 13.3905 1.85444 13.6064 1.73447C13.8224 1.6145 14.0599 1.53839 14.3054 1.51051C14.5509 1.48263 14.7994 1.50354 15.0368 1.57202C15.2741 1.64051 15.4956 1.75523 15.6885 1.90958L19.5488 5.00183C19.9137 5.29429 20.1563 5.71261 20.2287 6.17468C20.3011 6.63675 20.1982 7.10921 19.9402 7.49933H17.9797L18.66 6.71033C18.6929 6.67217 18.7178 6.62776 18.7332 6.57975C18.7486 6.53175 18.7542 6.48113 18.7495 6.43094C18.7449 6.38074 18.7302 6.33199 18.7063 6.2876C18.6824 6.24321 18.6499 6.20409 18.6105 6.17258L16.7325 4.66808L14.5065 7.50008H12.5985L15.561 3.73058L14.751 3.08108V3.08108ZM4.5 5.25008C3.90326 5.25008 3.33097 5.48713 2.90901 5.90909C2.48705 6.33105 2.25 6.90334 2.25 7.50008V18.3751C2.25 19.2702 2.60558 20.1286 3.23851 20.7616C3.87145 21.3945 4.72989 21.7501 5.625 21.7501H18.375C19.2701 21.7501 20.1285 21.3945 20.7615 20.7616C21.3944 20.1286 21.75 19.2702 21.75 18.3751V11.6251C21.75 10.73 21.3944 9.87153 20.7615 9.2386C20.1285 8.60566 19.2701 8.25008 18.375 8.25008H4.5C4.30109 8.25008 4.11032 8.17106 3.96967 8.03041C3.82902 7.88976 3.75 7.69899 3.75 7.50008C3.75 7.30117 3.82902 7.1104 3.96967 6.96975C4.11032 6.8291 4.30109 6.75008 4.5 6.75008H7.935L9.132 5.25008H4.5ZM15.75 14.2501H18C18.1989 14.2501 18.3897 14.3291 18.5303 14.4698C18.671 14.6104 18.75 14.8012 18.75 15.0001C18.75 15.199 18.671 15.3898 18.5303 15.5304C18.3897 15.6711 18.1989 15.7501 18 15.7501H15.75C15.5511 15.7501 15.3603 15.6711 15.2197 15.5304C15.079 15.3898 15 15.199 15 15.0001C15 14.8012 15.079 14.6104 15.2197 14.4698C15.3603 14.3291 15.5511 14.2501 15.75 14.2501Z" fill="black"/>
</svg>
